MFile 0 1 480
MTrk
0 Meta TrkName "drums"
0 Meta InstrName "midi"
0 TimeSig 4/4 24 8
0 KeySig 0 major
0 SMPTE 33 0 0 0 0
0 Tempo 372671
0 On ch=1 n=0 v=100
0 On ch=1 n=30 v=99
120 Off ch=1 n=0 v=0
720 On ch=1 n=30 v=0
720 On ch=1 n=30 v=99
1440 On ch=1 n=30 v=90
1440 Off ch=1 n=30 v=64
2880 On ch=1 n=30 v=0
3840 On ch=1 n=30 v=107
4560 On ch=1 n=30 v=0
4560 On ch=1 n=30 v=123
5250 On ch=1 n=30 v=0
5280 On ch=1 n=30 v=110
6775 On ch=1 n=30 v=0
7680 On ch=1 n=30 v=110
8400 On ch=1 n=30 v=0
8400 On ch=1 n=30 v=127
9038 On ch=1 n=30 v=0
9120 On ch=1 n=30 v=96
10560 On ch=1 n=30 v=0
11520 On ch=1 n=30 v=101
12240 On ch=1 n=30 v=0
12240 On ch=1 n=30 v=124
12942 On ch=1 n=30 v=0
12960 On ch=1 n=30 v=78
14400 On ch=1 n=30 v=0
14880 On ch=1 n=32 v=86
15356 Off ch=1 n=32 v=0
15360 On ch=1 n=25 v=123
15360 On ch=1 n=26 v=123
15360 On ch=1 n=30 v=99
15360 On ch=1 n=32 v=86
15480 Off ch=1 n=26 v=0
15480 Off ch=1 n=26 v=0
15840 On ch=1 n=26 v=99
15840 On ch=1 n=28 v=99
15840 Off ch=1 n=25 v=0
15960 Off ch=1 n=26 v=64
16080 On ch=1 n=25 v=123
16080 On ch=1 n=26 v=123
16080 On ch=1 n=30 v=0
16080 On ch=1 n=30 v=99
16200 Off ch=1 n=26 v=64
16200 Off ch=1 n=26 v=64
16320 Off ch=1 n=28 v=64
16560 On ch=1 n=26 v=99
16560 On ch=1 n=28 v=99
16560 Off ch=1 n=25 v=64
16680 Off ch=1 n=26 v=64
16800 On ch=1 n=25 v=123
16800 On ch=1 n=26 v=123
16800 On ch=1 n=30 v=90
16800 Off ch=1 n=30 v=64
16920 Off ch=1 n=26 v=64
16920 Off ch=1 n=26 v=64
17040 Off ch=1 n=28 v=64
17280 Off ch=1 n=25 v=64
17760 On ch=1 n=26 v=99
17760 On ch=1 n=28 v=99
17880 Off ch=1 n=26 v=64
18000 On ch=1 n=25 v=123
18000 On ch=1 n=26 v=123
18120 Off ch=1 n=26 v=64
18240 On ch=1 n=25 v=123
18240 On ch=1 n=26 v=123
18240 On ch=1 n=30 v=0
18240 Off ch=1 n=25 v=64
18240 Off ch=1 n=28 v=64
18360 Off ch=1 n=26 v=64
18480 Off ch=1 n=25 v=64
18716 Off ch=1 n=32 v=64
18720 On ch=1 n=26 v=86
18720 On ch=1 n=32 v=86
18840 Off ch=1 n=26 v=64
19196 Off ch=1 n=32 v=0
19200 On ch=1 n=25 v=123
19200 On ch=1 n=26 v=123
19200 On ch=1 n=26 v=86
19200 On ch=1 n=30 v=107
19200 On ch=1 n=32 v=86
19320 Off ch=1 n=26 v=64
19320 Off ch=1 n=26 v=64
19320 Off ch=1 n=26 v=64
19680 On ch=1 n=26 v=99
19680 On ch=1 n=28 v=99
19680 Off ch=1 n=25 v=64
19800 Off ch=1 n=26 v=64
19920 On ch=1 n=25 v=123
19920 On ch=1 n=26 v=123
19920 On ch=1 n=30 v=0
19920 On ch=1 n=30 v=123
20040 Off ch=1 n=26 v=64
20040 Off ch=1 n=26 v=64
20160 Off ch=1 n=28 v=64
20400 On ch=1 n=26 v=99
20400 On ch=1 n=28 v=99
20400 Off ch=1 n=25 v=64
20520 Off ch=1 n=26 v=64
20610 On ch=1 n=30 v=0
20636 Off ch=1 n=32 v=64
20640 On ch=1 n=26 v=86
20640 On ch=1 n=25 v=123
20640 On ch=1 n=26 v=123
20640 On ch=1 n=26 v=86
20640 On ch=1 n=30 v=110
20640 On ch=1 n=32 v=86
20760 Off ch=1 n=26 v=64
20760 Off ch=1 n=26 v=64
20760 Off ch=1 n=26 v=64
20760 Off ch=1 n=26 v=64
20880 Off ch=1 n=28 v=64
21120 Off ch=1 n=25 v=64
21360 On ch=1 n=26 v=86
21480 Off ch=1 n=26 v=64
21600 On ch=1 n=26 v=99
21600 On ch=1 n=28 v=99
21720 Off ch=1 n=26 v=64
22080 On ch=1 n=25 v=123
22080 On ch=1 n=26 v=123
22080 Off ch=1 n=28 v=64
22135 On ch=1 n=30 v=0
22200 Off ch=1 n=26 v=64
22320 On ch=1 n=25 v=123
22320 On ch=1 n=26 v=123
22320 Off ch=1 n=25 v=64
22440 Off ch=1 n=26 v=64
22556 Off ch=1 n=32 v=64
22560 On ch=1 n=28 v=92
22560 On ch=1 n=32 v=86
22560 Off ch=1 n=25 v=64
22800 On ch=1 n=25 v=123
22800 On ch=1 n=26 v=123
22920 Off ch=1 n=26 v=64
23036 Off ch=1 n=32 v=64
23040 On ch=1 n=25 v=123
23040 On ch=1 n=26 v=123
23040 On ch=1 n=30 v=110
23040 On ch=1 n=32 v=86
23040 Off ch=1 n=25 v=64
23040 Off ch=1 n=28 v=64
23160 Off ch=1 n=26 v=0
23160 Off ch=1 n=26 v=0
23520 On ch=1 n=26 v=99
23520 On ch=1 n=28 v=99
23520 Off ch=1 n=25 v=0
23640 Off ch=1 n=26 v=64
23760 On ch=1 n=25 v=123
23760 On ch=1 n=26 v=123
23760 On ch=1 n=30 v=0
23760 On ch=1 n=30 v=127
23880 Off ch=1 n=26 v=64
23880 Off ch=1 n=26 v=64
24000 Off ch=1 n=28 v=64
24240 On ch=1 n=26 v=99
24240 On ch=1 n=28 v=99
24240 Off ch=1 n=25 v=64
24360 Off ch=1 n=26 v=64
24398 On ch=1 n=30 v=0
24480 On ch=1 n=25 v=123
24480 On ch=1 n=26 v=123
24480 On ch=1 n=30 v=96
24600 Off ch=1 n=26 v=64
24600 Off ch=1 n=26 v=64
24720 Off ch=1 n=28 v=64
24960 Off ch=1 n=25 v=64
25440 On ch=1 n=26 v=99
25440 On ch=1 n=28 v=99
25560 Off ch=1 n=26 v=64
25680 On ch=1 n=25 v=123
25680 On ch=1 n=26 v=123
25800 Off ch=1 n=26 v=64
25913 On ch=1 n=29 v=127
25920 On ch=1 n=25 v=123
25920 On ch=1 n=26 v=123
25920 On ch=1 n=30 v=0
25920 Off ch=1 n=25 v=64
25920 Off ch=1 n=28 v=64
26040 Off ch=1 n=26 v=64
26160 Off ch=1 n=25 v=64
26396 Off ch=1 n=32 v=64
26400 On ch=1 n=26 v=86
26400 On ch=1 n=32 v=86
26520 Off ch=1 n=26 v=64
26528 On ch=1 n=29 v=0
26876 Off ch=1 n=32 v=64
26880 On ch=1 n=25 v=123
26880 On ch=1 n=26 v=123
26880 On ch=1 n=26 v=86
26880 On ch=1 n=30 v=101
26880 On ch=1 n=32 v=86
27000 Off ch=1 n=26 v=64
27000 Off ch=1 n=26 v=64
27000 Off ch=1 n=26 v=64
27360 On ch=1 n=26 v=99
27360 On ch=1 n=28 v=99
27360 Off ch=1 n=25 v=64
27480 Off ch=1 n=26 v=64
27600 On ch=1 n=25 v=123
27600 On ch=1 n=26 v=123
27600 On ch=1 n=30 v=0
27600 On ch=1 n=30 v=124
27720 Off ch=1 n=26 v=64
27720 Off ch=1 n=26 v=64
27840 Off ch=1 n=28 v=64
28080 On ch=1 n=26 v=99
28080 On ch=1 n=28 v=99
28080 Off ch=1 n=25 v=64
28200 Off ch=1 n=26 v=64
28302 On ch=1 n=30 v=0
28316 Off ch=1 n=32 v=64
28320 On ch=1 n=26 v=86
28320 On ch=1 n=25 v=123
28320 On ch=1 n=26 v=123
28320 On ch=1 n=26 v=86
28320 On ch=1 n=30 v=78
28320 On ch=1 n=32 v=86
28440 Off ch=1 n=26 v=64
28440 Off ch=1 n=26 v=64
28440 Off ch=1 n=26 v=64
28440 Off ch=1 n=26 v=64
28560 Off ch=1 n=28 v=64
28800 Off ch=1 n=25 v=64
29040 On ch=1 n=26 v=86
29160 Off ch=1 n=26 v=64
29280 On ch=1 n=26 v=99
29280 On ch=1 n=28 v=99
29400 Off ch=1 n=26 v=64
29760 On ch=1 n=25 v=123
29760 On ch=1 n=26 v=123
29760 On ch=1 n=30 v=0
29760 Off ch=1 n=28 v=64
29880 Off ch=1 n=26 v=64
30000 On ch=1 n=25 v=123
30000 On ch=1 n=26 v=123
30000 Off ch=1 n=25 v=64
30120 Off ch=1 n=26 v=64
30236 Off ch=1 n=32 v=64
30240 On ch=1 n=28 v=92
30240 On ch=1 n=32 v=86
30240 Off ch=1 n=25 v=64
30480 On ch=1 n=25 v=123
30480 On ch=1 n=26 v=123
30600 Off ch=1 n=26 v=64
30716 Off ch=1 n=32 v=0
30716 On ch=1 n=29 v=87
30720 On ch=1 n=25 v=123
30720 On ch=1 n=26 v=123
30720 On ch=1 n=30 v=99
30720 On ch=1 n=32 v=86
30720 Off ch=1 n=25 v=64
30720 Off ch=1 n=28 v=64
30721 On ch=1 n=36 v=96
30840 Off ch=1 n=26 v=0
30840 Off ch=1 n=26 v=0
31200 On ch=1 n=26 v=99
31200 On ch=1 n=28 v=99
31200 Off ch=1 n=25 v=0
31200 Off ch=1 n=29 v=64
31320 Off ch=1 n=26 v=64
31435 On ch=1 n=36 v=0
31439 On ch=1 n=36 v=98
31440 On ch=1 n=25 v=123
31440 On ch=1 n=26 v=123
31560 Off ch=1 n=26 v=64
31560 Off ch=1 n=26 v=64
31680 Off ch=1 n=28 v=64
31915 On ch=1 n=36 v=0
31919 On ch=1 n=36 v=99
31919 On ch=1 n=26 v=99
31919 On ch=1 n=28 v=99
31919 Off ch=1 n=25 v=64
32040 Off ch=1 n=26 v=64
32160 On ch=1 n=25 v=123
32160 On ch=1 n=26 v=123
32160 On ch=1 n=30 v=90
32160 On ch=1 n=36 v=0
32164 On ch=1 n=36 v=94
32280 Off ch=1 n=26 v=64
32280 Off ch=1 n=26 v=64
32296 On ch=1 n=30 v=0
32400 Off ch=1 n=28 v=64
32640 Off ch=1 n=25 v=64
32881 On ch=1 n=36 v=0
32885 On ch=1 n=36 v=90
33120 On ch=1 n=26 v=99
33120 On ch=1 n=28 v=99
33240 Off ch=1 n=26 v=64
33356 On ch=1 n=36 v=0
33360 On ch=1 n=36 v=95
33360 On ch=1 n=25 v=123
33360 On ch=1 n=26 v=123
33480 Off ch=1 n=26 v=64
33598 On ch=1 n=29 v=120
33600 On ch=1 n=25 v=123
33600 On ch=1 n=26 v=123
33600 On ch=1 n=30 v=0
33600 Off ch=1 n=25 v=64
33600 Off ch=1 n=28 v=64
33720 Off ch=1 n=26 v=64
33840 Off ch=1 n=25 v=64
34075 On ch=1 n=36 v=0
34079 On ch=1 n=36 v=92
34079 On ch=1 n=26 v=86
34200 Off ch=1 n=26 v=64
34206 On ch=1 n=29 v=0
34553 On ch=1 n=36 v=0
34557 On ch=1 n=36 v=99
34560 On ch=1 n=25 v=123
34560 On ch=1 n=26 v=123
34560 On ch=1 n=26 v=86
34560 On ch=1 n=30 v=107
34680 Off ch=1 n=26 v=64
34680 Off ch=1 n=26 v=64
34680 Off ch=1 n=26 v=64
34800 Off ch=1 n=32 v=64
35040 On ch=1 n=26 v=99
35040 On ch=1 n=28 v=99
35040 Off ch=1 n=25 v=64
35160 Off ch=1 n=26 v=64
35277 On ch=1 n=36 v=0
35280 On ch=1 n=25 v=123
35280 On ch=1 n=26 v=123
35280 On ch=1 n=30 v=0
35280 On ch=1 n=30 v=123
35281 On ch=1 n=36 v=90
35400 Off ch=1 n=26 v=64
35400 Off ch=1 n=26 v=64
35520 Off ch=1 n=28 v=64
35753 On ch=1 n=36 v=0
35757 On ch=1 n=36 v=83
35760 On ch=1 n=26 v=99
35760 On ch=1 n=28 v=99
35760 Off ch=1 n=25 v=64
35880 Off ch=1 n=26 v=64
35970 On ch=1 n=30 v=0
36000 On ch=1 n=26 v=86
36000 On ch=1 n=25 v=123
36000 On ch=1 n=26 v=123
36000 On ch=1 n=26 v=86
36000 On ch=1 n=30 v=110
36000 On ch=1 n=36 v=0
36004 On ch=1 n=36 v=82
36120 Off ch=1 n=26 v=64
36120 Off ch=1 n=26 v=64
36120 Off ch=1 n=26 v=64
36120 Off ch=1 n=26 v=64
36240 Off ch=1 n=28 v=64
36479 On ch=1 n=29 v=99
36480 Off ch=1 n=25 v=64
36706 On ch=1 n=36 v=0
36710 On ch=1 n=36 v=91
36720 On ch=1 n=26 v=86
36840 Off ch=1 n=26 v=64
36924 Off ch=1 n=29 v=64
36960 On ch=1 n=26 v=99
36960 On ch=1 n=28 v=99
37080 Off ch=1 n=26 v=64
37190 On ch=1 n=36 v=0
37194 On ch=1 n=36 v=90
37426 On ch=1 n=36 v=0
37430 On ch=1 n=36 v=87
37439 On ch=1 n=29 v=99
37440 On ch=1 n=25 v=123
37440 On ch=1 n=26 v=123
37440 Off ch=1 n=28 v=64
37495 On ch=1 n=30 v=0
37560 Off ch=1 n=26 v=64
37680 On ch=1 n=25 v=123
37680 On ch=1 n=26 v=123
37680 Off ch=1 n=25 v=64
37800 Off ch=1 n=26 v=64
37884 On ch=1 n=29 v=0
37919 On ch=1 n=29 v=113
37919 On ch=1 n=28 v=92
37919 Off ch=1 n=25 v=64
38157 On ch=1 n=36 v=0
38160 On ch=1 n=25 v=123
38160 On ch=1 n=26 v=123
38160 On ch=1 n=36 v=91
38280 Off ch=1 n=26 v=64
38397 On ch=1 n=36 v=0
38400 On ch=1 n=25 v=123
38400 On ch=1 n=26 v=123
38400 On ch=1 n=30 v=110
38400 Off ch=1 n=25 v=64
38400 Off ch=1 n=28 v=64
38401 On ch=1 n=36 v=94
38413 On ch=1 n=29 v=0
38520 Off ch=1 n=26 v=0
38520 Off ch=1 n=26 v=0
38880 On ch=1 n=26 v=99
38880 On ch=1 n=28 v=99
38880 Off ch=1 n=25 v=0
39000 Off ch=1 n=26 v=64
39115 On ch=1 n=36 v=0
39119 On ch=1 n=36 v=81
39120 On ch=1 n=25 v=123
39120 On ch=1 n=26 v=123
39120 On ch=1 n=30 v=0
39120 On ch=1 n=30 v=127
39240 Off ch=1 n=26 v=64
39240 Off ch=1 n=26 v=64
39360 Off ch=1 n=28 v=64
39595 On ch=1 n=36 v=0
39599 On ch=1 n=36 v=93
39599 On ch=1 n=26 v=99
39599 On ch=1 n=28 v=99
39599 Off ch=1 n=25 v=64
39720 Off ch=1 n=26 v=64
39758 On ch=1 n=30 v=0
39840 On ch=1 n=25 v=123
39840 On ch=1 n=26 v=123
39840 On ch=1 n=30 v=96
39840 On ch=1 n=36 v=0
39844 On ch=1 n=36 v=81
39960 Off ch=1 n=26 v=64
39960 Off ch=1 n=26 v=64
40080 Off ch=1 n=28 v=64
40320 Off ch=1 n=25 v=64
40561 On ch=1 n=36 v=0
40565 On ch=1 n=36 v=92
40800 On ch=1 n=26 v=99
40800 On ch=1 n=28 v=99
40920 Off ch=1 n=26 v=64
41036 On ch=1 n=36 v=0
41040 On ch=1 n=36 v=88
41040 On ch=1 n=25 v=123
41040 On ch=1 n=26 v=123
41160 Off ch=1 n=26 v=64
41275 On ch=1 n=29 v=102
41280 On ch=1 n=25 v=123
41280 On ch=1 n=26 v=123
41280 On ch=1 n=30 v=0
41280 Off ch=1 n=25 v=64
41280 Off ch=1 n=28 v=64
41400 Off ch=1 n=26 v=64
41520 Off ch=1 n=25 v=64
41755 On ch=1 n=36 v=0
41759 On ch=1 n=36 v=93
41759 On ch=1 n=26 v=86
41759 On ch=1 n=29 v=0
41880 Off ch=1 n=26 v=64
42233 On ch=1 n=36 v=0
42237 On ch=1 n=36 v=98
42240 On ch=1 n=25 v=123
42240 On ch=1 n=26 v=123
42240 On ch=1 n=26 v=86
42240 On ch=1 n=30 v=101
42360 Off ch=1 n=26 v=64
42360 Off ch=1 n=26 v=64
42360 Off ch=1 n=26 v=64
42720 On ch=1 n=26 v=99
42720 On ch=1 n=28 v=99
42720 Off ch=1 n=25 v=64
42840 Off ch=1 n=26 v=64
42957 On ch=1 n=36 v=0
42960 On ch=1 n=25 v=123
42960 On ch=1 n=26 v=123
42960 On ch=1 n=30 v=0
42960 On ch=1 n=30 v=124
42961 On ch=1 n=36 v=95
43080 Off ch=1 n=26 v=64
43080 Off ch=1 n=26 v=64
43200 Off ch=1 n=28 v=64
43433 On ch=1 n=36 v=0
43437 On ch=1 n=36 v=90
43440 On ch=1 n=26 v=99
43440 On ch=1 n=28 v=99
43440 Off ch=1 n=25 v=64
43560 Off ch=1 n=26 v=64
43662 On ch=1 n=30 v=0
43680 On ch=1 n=26 v=86
43680 On ch=1 n=25 v=123
43680 On ch=1 n=26 v=123
43680 On ch=1 n=26 v=86
43680 On ch=1 n=30 v=78
43680 On ch=1 n=36 v=0
43684 On ch=1 n=36 v=92
43800 Off ch=1 n=26 v=64
43800 Off ch=1 n=26 v=64
43800 Off ch=1 n=26 v=64
43800 Off ch=1 n=26 v=64
43920 Off ch=1 n=28 v=64
44154 On ch=1 n=29 v=126
44160 Off ch=1 n=25 v=64
44400 On ch=1 n=26 v=86
44520 Off ch=1 n=26 v=64
44583 On ch=1 n=29 v=0
44636 On ch=1 n=29 v=95
44640 On ch=1 n=26 v=99
44640 On ch=1 n=28 v=99
44760 Off ch=1 n=26 v=64
45054 On ch=1 n=29 v=0
45107 On ch=1 n=36 v=0
45111 On ch=1 n=36 v=83
45120 On ch=1 n=25 v=123
45120 On ch=1 n=26 v=123
45120 On ch=1 n=30 v=0
45120 Off ch=1 n=28 v=64
45240 Off ch=1 n=26 v=64
45360 On ch=1 n=25 v=123
45360 On ch=1 n=26 v=123
45360 Off ch=1 n=25 v=64
45480 Off ch=1 n=26 v=64
45600 On ch=1 n=28 v=92
45600 Off ch=1 n=25 v=64
45840 On ch=1 n=25 v=123
45840 On ch=1 n=26 v=123
45960 Off ch=1 n=26 v=64
46066 On ch=1 n=36 v=0
46070 On ch=1 n=36 v=83
46080 On ch=1 n=26 v=99
46080 On ch=1 n=30 v=99
46080 Off ch=1 n=25 v=64
46080 Off ch=1 n=28 v=64
46200 Off ch=1 n=26 v=0
46560 On ch=1 n=26 v=99
46680 Off ch=1 n=26 v=64
47040 On ch=1 n=26 v=99
47160 Off ch=1 n=26 v=64
47520 On ch=1 n=26 v=99
47520 On ch=1 n=30 v=90
47640 Off ch=1 n=26 v=64
47656 On ch=1 n=30 v=0
48000 On ch=1 n=26 v=99
48120 Off ch=1 n=26 v=64
48480 On ch=1 n=26 v=99
48600 Off ch=1 n=26 v=64
48960 On ch=1 n=26 v=99
48960 On ch=1 n=30 v=0
49080 Off ch=1 n=26 v=64
49440 On ch=1 n=26 v=99
49560 Off ch=1 n=26 v=64
49906 Off ch=1 n=36 v=64
49910 On ch=1 n=36 v=83
49920 On ch=1 n=26 v=99
49920 On ch=1 n=30 v=99
50040 Off ch=1 n=26 v=64
50400 On ch=1 n=26 v=99
50520 Off ch=1 n=26 v=64
50880 On ch=1 n=26 v=99
51000 Off ch=1 n=26 v=64
51360 On ch=1 n=26 v=99
51360 On ch=1 n=30 v=90
51480 Off ch=1 n=26 v=64
51496 Off ch=1 n=30 v=64
51840 On ch=1 n=26 v=99
51960 Off ch=1 n=26 v=64
52320 On ch=1 n=26 v=99
52440 Off ch=1 n=26 v=64
52800 On ch=1 n=26 v=99
52800 Off ch=1 n=30 v=64
52920 Off ch=1 n=26 v=64
53280 On ch=1 n=26 v=99
53400 Off ch=1 n=26 v=64
53746 Off ch=1 n=36 v=64
53750 On ch=1 n=36 v=83
53760 On ch=1 n=26 v=99
53760 On ch=1 n=30 v=99
53880 Off ch=1 n=26 v=64
54240 On ch=1 n=26 v=99
54360 Off ch=1 n=26 v=64
54720 On ch=1 n=26 v=99
54840 Off ch=1 n=26 v=64
55200 On ch=1 n=26 v=99
55200 On ch=1 n=30 v=90
55320 Off ch=1 n=26 v=64
55336 On ch=1 n=30 v=0
55680 On ch=1 n=26 v=99
55800 Off ch=1 n=26 v=64
56160 On ch=1 n=26 v=99
56280 Off ch=1 n=26 v=64
56640 On ch=1 n=26 v=99
56640 On ch=1 n=30 v=0
56760 Off ch=1 n=26 v=64
57120 On ch=1 n=26 v=99
57240 Off ch=1 n=26 v=64
57586 Off ch=1 n=36 v=64
57590 On ch=1 n=36 v=83
60820 On ch=1 n=24 v=100
61323 Off ch=1 n=36 v=64
61436 Off ch=1 n=24 v=64
61440 On ch=1 n=24 v=100
61440 On ch=1 n=25 v=100
61905 On ch=1 n=25 v=0
61920 On ch=1 n=28 v=100
62051 Off ch=1 n=28 v=0
62156 Off ch=1 n=24 v=0
62160 On ch=1 n=24 v=100
62160 On ch=1 n=25 v=100
62508 On ch=1 n=25 v=0
62640 On ch=1 n=28 v=100
62771 Off ch=1 n=28 v=64
62876 Off ch=1 n=24 v=64
62880 On ch=1 n=24 v=100
62880 On ch=1 n=25 v=100
63680 On ch=1 n=27 v=100
63994 Off ch=1 n=27 v=64
64000 On ch=1 n=27 v=100
64020 On ch=1 n=25 v=0
64136 Off ch=1 n=24 v=64
64314 Off ch=1 n=27 v=64
64320 On ch=1 n=27 v=100
64634 Off ch=1 n=27 v=64
64640 On ch=1 n=27 v=100
64954 Off ch=1 n=27 v=64
64960 On ch=1 n=27 v=100
65274 Off ch=1 n=27 v=64
65280 On ch=1 n=25 v=100
65280 On ch=1 n=30 v=101
65572 On ch=1 n=25 v=0
65760 On ch=1 n=28 v=100
65891 Off ch=1 n=28 v=64
66000 On ch=1 n=25 v=100
66000 On ch=1 n=30 v=0
66000 On ch=1 n=30 v=124
66135 On ch=1 n=25 v=0
66240 On ch=1 n=26 v=100
66240 On ch=1 n=28 v=100
66360 Off ch=1 n=26 v=64
66371 Off ch=1 n=28 v=64
66480 On ch=1 n=28 v=100
66611 Off ch=1 n=28 v=64
66702 On ch=1 n=30 v=0
66720 On ch=1 n=25 v=100
66720 On ch=1 n=26 v=100
66720 On ch=1 n=28 v=100
66720 On ch=1 n=30 v=78
66840 Off ch=1 n=26 v=64
66851 Off ch=1 n=28 v=64
66960 On ch=1 n=26 v=100
67057 On ch=1 n=25 v=0
67080 Off ch=1 n=26 v=64
67200 On ch=1 n=26 v=100
67320 On ch=1 n=26 v=100
67320 Off ch=1 n=26 v=64
67440 On ch=1 n=26 v=100
67440 Off ch=1 n=26 v=64
67560 On ch=1 n=26 v=100
67560 Off ch=1 n=26 v=64
67680 Off ch=1 n=26 v=64
68160 On ch=1 n=26 v=100
68160 On ch=1 n=30 v=0
68280 On ch=1 n=26 v=0
68400 On ch=1 n=26 v=100
68520 Off ch=1 n=26 v=64
68640 On ch=1 n=26 v=100
68760 Off ch=1 n=26 v=64
68880 On ch=1 n=26 v=100
69000 Off ch=1 n=26 v=64
69120 On ch=1 n=24 v=100
69120 On ch=1 n=25 v=100
69531 On ch=1 n=25 v=0
69600 On ch=1 n=28 v=100
69731 Off ch=1 n=28 v=0
69836 Off ch=1 n=24 v=0
69840 On ch=1 n=24 v=100
69840 On ch=1 n=25 v=100
69966 On ch=1 n=25 v=0
70320 On ch=1 n=25 v=100
70320 On ch=1 n=28 v=100
70333 On ch=1 n=25 v=0
70451 Off ch=1 n=28 v=64
70556 Off ch=1 n=24 v=64
70560 On ch=1 n=24 v=100
70560 On ch=1 n=25 v=100
71360 On ch=1 n=27 v=100
71674 Off ch=1 n=27 v=64
71680 On ch=1 n=27 v=100
71816 Off ch=1 n=24 v=64
71820 On ch=1 n=24 v=100
71960 On ch=1 n=25 v=0
71994 Off ch=1 n=27 v=64
72000 On ch=1 n=25 v=100
72220 On ch=1 n=25 v=0
72240 On ch=1 n=25 v=100
72360 Off ch=1 n=24 v=0
72460 Off ch=1 n=25 v=64
72480 On ch=1 n=25 v=100
72480 On ch=1 n=32 v=83
72602 Off ch=1 n=32 v=64
72606 On ch=1 n=32 v=83
72648 Off ch=1 n=32 v=64
72652 On ch=1 n=32 v=83
72700 Off ch=1 n=25 v=64
72720 On ch=1 n=25 v=100
72739 Off ch=1 n=32 v=64
72743 On ch=1 n=32 v=83
72825 Off ch=1 n=32 v=64
72829 On ch=1 n=32 v=83
72871 Off ch=1 n=32 v=64
72875 On ch=1 n=32 v=83
72917 Off ch=1 n=32 v=64
72921 On ch=1 n=32 v=83
72933 Off ch=1 n=32 v=64
72937 On ch=1 n=32 v=83
72940 Off ch=1 n=25 v=64
72960 On ch=1 n=25 v=100
72960 On ch=1 n=25 v=100
72960 On ch=1 n=26 v=100
72960 On ch=1 n=31 v=83
72969 On ch=1 n=31 v=83
72981 On ch=1 n=31 v=83
72994 On ch=1 n=31 v=83
72998 Off ch=1 n=32 v=64
73002 On ch=1 n=32 v=83
73013 On ch=1 n=31 v=83
73038 On ch=1 n=31 v=83
73042 On ch=1 n=25 v=0
73060 On ch=1 n=31 v=83
73073 On ch=1 n=31 v=83
73080 On ch=1 n=26 v=0
73098 On ch=1 n=30 v=83
73098 On ch=1 n=31 v=83
73380 Off ch=1 n=31 v=0
73389 Off ch=1 n=31 v=64
73401 Off ch=1 n=31 v=64
73414 Off ch=1 n=31 v=64
73425 Off ch=1 n=25 v=64
73432 Off ch=1 n=31 v=64
73438 Off ch=1 n=32 v=64
73440 On ch=1 n=28 v=100
73442 On ch=1 n=32 v=83
73458 Off ch=1 n=31 v=64
73480 Off ch=1 n=31 v=64
73493 Off ch=1 n=31 v=64
73518 Off ch=1 n=30 v=64
73518 Off ch=1 n=31 v=64
73571 Off ch=1 n=28 v=64
73680 On ch=1 n=25 v=100
73680 On ch=1 n=31 v=83
73700 On ch=1 n=31 v=83
73713 On ch=1 n=31 v=83
73732 On ch=1 n=31 v=83
73744 On ch=1 n=31 v=83
73767 On ch=1 n=31 v=83
73791 On ch=1 n=31 v=83
73815 On ch=1 n=31 v=83
73838 On ch=1 n=30 v=83
73838 On ch=1 n=31 v=83
73918 Off ch=1 n=32 v=64
73920 On ch=1 n=26 v=100
73920 On ch=1 n=28 v=100
73922 On ch=1 n=32 v=83
74028 Off ch=1 n=25 v=64
74040 Off ch=1 n=26 v=64
74051 Off ch=1 n=28 v=64
74100 Off ch=1 n=31 v=64
74120 Off ch=1 n=31 v=64
74133 Off ch=1 n=31 v=64
74152 Off ch=1 n=31 v=64
74160 On ch=1 n=28 v=100
74164 Off ch=1 n=31 v=64
74187 Off ch=1 n=31 v=64
74211 Off ch=1 n=31 v=64
74235 Off ch=1 n=31 v=64
74258 Off ch=1 n=30 v=64
74258 Off ch=1 n=31 v=64
74291 Off ch=1 n=28 v=64
74398 Off ch=1 n=32 v=64
74400 On ch=1 n=26 v=100
74400 On ch=1 n=28 v=100
74402 On ch=1 n=32 v=83
74411 On ch=1 n=31 v=83
74434 On ch=1 n=31 v=83
74445 On ch=1 n=31 v=83
74458 On ch=1 n=31 v=83
74477 On ch=1 n=31 v=83
74493 On ch=1 n=31 v=83
74504 On ch=1 n=31 v=83
74510 On ch=1 n=31 v=83
74520 Off ch=1 n=26 v=64
74531 Off ch=1 n=28 v=64
74532 On ch=1 n=30 v=83
74532 On ch=1 n=31 v=83
74640 On ch=1 n=26 v=100
74760 Off ch=1 n=26 v=64
74831 Off ch=1 n=31 v=64
74854 Off ch=1 n=31 v=64
74865 Off ch=1 n=31 v=64
74878 Off ch=1 n=31 v=64
74878 Off ch=1 n=32 v=64
74880 On ch=1 n=25 v=100
74880 On ch=1 n=26 v=100
74882 On ch=1 n=32 v=83
74898 Off ch=1 n=31 v=64
74914 Off ch=1 n=31 v=64
74924 Off ch=1 n=31 v=64
74930 Off ch=1 n=31 v=64
74952 Off ch=1 n=30 v=64
74952 Off ch=1 n=31 v=64
75000 On ch=1 n=26 v=100
75000 Off ch=1 n=26 v=64
75120 On ch=1 n=26 v=100
75120 On ch=1 n=26 v=100
75120 Off ch=1 n=26 v=64
75240 On ch=1 n=26 v=100
75240 Off ch=1 n=26 v=64
75240 Off ch=1 n=26 v=64
75358 Off ch=1 n=32 v=64
75360 On ch=1 n=25 v=100
75360 On ch=1 n=26 v=100
75360 Off ch=1 n=25 v=64
75360 Off ch=1 n=26 v=64
75362 On ch=1 n=32 v=83
75480 On ch=1 n=26 v=100
75480 Off ch=1 n=26 v=64
75600 On ch=1 n=26 v=100
75600 Off ch=1 n=26 v=64
75720 On ch=1 n=26 v=100
75720 Off ch=1 n=26 v=64
75840 On ch=1 n=25 v=100
75840 On ch=1 n=26 v=100
75840 Off ch=1 n=25 v=64
75840 Off ch=1 n=26 v=64
75960 On ch=1 n=26 v=100
75960 Off ch=1 n=26 v=64
76080 On ch=1 n=26 v=100
76080 On ch=1 n=26 v=100
76080 Off ch=1 n=26 v=64
76135 On ch=1 n=26 v=100
76140 On ch=1 n=28 v=100
76174 Off ch=1 n=28 v=64
76200 On ch=1 n=28 v=100
76200 Off ch=1 n=26 v=64
76200 Off ch=1 n=26 v=64
76234 Off ch=1 n=28 v=64
76255 Off ch=1 n=26 v=64
76260 On ch=1 n=26 v=100
76260 On ch=1 n=28 v=100
76294 Off ch=1 n=28 v=64
76320 On ch=1 n=25 v=100
76320 On ch=1 n=26 v=100
76320 On ch=1 n=26 v=100
76320 On ch=1 n=28 v=100
76320 On ch=1 n=28 v=100
76320 Off ch=1 n=25 v=64
76354 Off ch=1 n=28 v=64
76380 Off ch=1 n=26 v=64
76440 On ch=1 n=26 v=100
76440 On ch=1 n=28 v=100
76440 Off ch=1 n=26 v=64
76440 Off ch=1 n=26 v=64
76474 Off ch=1 n=28 v=64
76560 On ch=1 n=26 v=100
76560 On ch=1 n=26 v=100
76560 On ch=1 n=28 v=100
76560 Off ch=1 n=26 v=64
76620 Off ch=1 n=28 v=64
76680 On ch=1 n=26 v=100
76680 On ch=1 n=28 v=100
76680 Off ch=1 n=26 v=64
76680 Off ch=1 n=26 v=64
76740 Off ch=1 n=28 v=64
76800 On ch=1 n=24 v=100
76800 On ch=1 n=25 v=100
76800 Off ch=1 n=25 v=64
76800 Off ch=1 n=26 v=64
76800 Off ch=1 n=28 v=64
76800 Off ch=1 n=32 v=64
77265 On ch=1 n=25 v=0
77280 On ch=1 n=28 v=100
77411 Off ch=1 n=28 v=0
77516 Off ch=1 n=24 v=0
77520 On ch=1 n=24 v=100
77520 On ch=1 n=25 v=100
77868 On ch=1 n=25 v=0
78000 On ch=1 n=28 v=100
78131 Off ch=1 n=28 v=64
78236 Off ch=1 n=24 v=64
78240 On ch=1 n=24 v=100
78240 On ch=1 n=25 v=100
79040 On ch=1 n=27 v=100
79354 Off ch=1 n=27 v=64
79360 On ch=1 n=27 v=100
79380 On ch=1 n=25 v=0
79496 Off ch=1 n=24 v=64
79674 Off ch=1 n=27 v=64
79680 On ch=1 n=27 v=100
79994 Off ch=1 n=27 v=64
80000 On ch=1 n=27 v=100
80314 Off ch=1 n=27 v=64
80320 On ch=1 n=27 v=100
80634 Off ch=1 n=27 v=64
80640 On ch=1 n=25 v=100
80640 On ch=1 n=25 v=100
80640 On ch=1 n=30 v=107
80652 On ch=1 n=25 v=0
80932 On ch=1 n=25 v=0
81120 On ch=1 n=28 v=100
81251 Off ch=1 n=28 v=64
81360 On ch=1 n=25 v=100
81360 On ch=1 n=30 v=0
81360 On ch=1 n=30 v=123
81495 On ch=1 n=25 v=0
81600 On ch=1 n=26 v=100
81600 On ch=1 n=28 v=100
81720 Off ch=1 n=26 v=64
81731 Off ch=1 n=28 v=64
81840 On ch=1 n=28 v=100
81971 Off ch=1 n=28 v=64
82050 On ch=1 n=30 v=0
82080 On ch=1 n=25 v=100
82080 On ch=1 n=26 v=100
82080 On ch=1 n=28 v=100
82080 On ch=1 n=30 v=110
82200 Off ch=1 n=26 v=64
82211 Off ch=1 n=28 v=64
82320 On ch=1 n=26 v=100
82417 On ch=1 n=25 v=0
82440 On ch=1 n=28 v=91
82440 Off ch=1 n=26 v=64
82560 On ch=1 n=26 v=100
82571 Off ch=1 n=28 v=64
82680 On ch=1 n=26 v=100
82680 Off ch=1 n=26 v=64
82800 On ch=1 n=26 v=100
82800 Off ch=1 n=26 v=64
82920 On ch=1 n=26 v=100
82920 Off ch=1 n=26 v=64
83040 Off ch=1 n=26 v=64
83520 On ch=1 n=26 v=100
83575 On ch=1 n=30 v=0
83640 On ch=1 n=26 v=0
83760 On ch=1 n=26 v=100
83880 Off ch=1 n=26 v=64
84000 On ch=1 n=26 v=100
84120 Off ch=1 n=26 v=64
84240 On ch=1 n=26 v=100
84360 Off ch=1 n=26 v=64
84480 On ch=1 n=24 v=100
84480 On ch=1 n=25 v=100
84891 On ch=1 n=25 v=0
84960 On ch=1 n=28 v=100
85091 Off ch=1 n=28 v=0
85196 Off ch=1 n=24 v=0
85200 On ch=1 n=24 v=100
85200 On ch=1 n=25 v=100
85326 On ch=1 n=25 v=0
85680 On ch=1 n=28 v=100
85811 Off ch=1 n=28 v=64
85916 Off ch=1 n=24 v=64
85920 On ch=1 n=24 v=100
85920 On ch=1 n=25 v=100
86720 On ch=1 n=27 v=100
87034 Off ch=1 n=27 v=64
87040 On ch=1 n=27 v=100
87176 Off ch=1 n=24 v=64
87180 On ch=1 n=24 v=100
87320 On ch=1 n=25 v=0
87354 Off ch=1 n=27 v=64
87360 On ch=1 n=25 v=100
87580 On ch=1 n=25 v=0
87600 On ch=1 n=25 v=100
87720 Off ch=1 n=24 v=0
87820 Off ch=1 n=25 v=64
87840 On ch=1 n=25 v=100
88060 Off ch=1 n=25 v=64
88080 On ch=1 n=25 v=100
88300 Off ch=1 n=25 v=64
88320 On ch=1 n=25 v=100
88320 On ch=1 n=26 v=100
88320 On ch=1 n=31 v=83
88320 On ch=1 n=32 v=83
88326 On ch=1 n=32 v=83
88329 On ch=1 n=31 v=83
88332 On ch=1 n=32 v=83
88339 Off ch=1 n=32 v=64
88340 On ch=1 n=31 v=83
88343 On ch=1 n=32 v=83
88349 On ch=1 n=32 v=83
88351 On ch=1 n=32 v=83
88354 On ch=1 n=31 v=83
88355 On ch=1 n=32 v=83
88357 On ch=1 n=32 v=83
88362 On ch=1 n=32 v=83
88373 On ch=1 n=31 v=83
88398 On ch=1 n=31 v=83
88420 On ch=1 n=31 v=83
88433 On ch=1 n=31 v=83
88440 On ch=1 n=26 v=0
88458 On ch=1 n=30 v=83
88458 On ch=1 n=31 v=83
88740 Off ch=1 n=31 v=0
88740 Off ch=1 n=32 v=0
88746 Off ch=1 n=32 v=64
88749 Off ch=1 n=31 v=64
88761 Off ch=1 n=31 v=64
88763 Off ch=1 n=32 v=64
88769 Off ch=1 n=32 v=64
88771 Off ch=1 n=32 v=64
88774 Off ch=1 n=31 v=64
88775 Off ch=1 n=32 v=64
88777 Off ch=1 n=32 v=64
88785 Off ch=1 n=25 v=64
88792 Off ch=1 n=31 v=64
88798 Off ch=1 n=32 v=64
88800 On ch=1 n=28 v=100
88802 On ch=1 n=32 v=83
88818 Off ch=1 n=31 v=64
88840 Off ch=1 n=31 v=64
88853 Off ch=1 n=31 v=64
88878 Off ch=1 n=30 v=64
88878 Off ch=1 n=31 v=64
88931 Off ch=1 n=28 v=64
89040 On ch=1 n=25 v=100
89040 On ch=1 n=31 v=83
89060 On ch=1 n=31 v=83
89073 On ch=1 n=31 v=83
89092 On ch=1 n=31 v=83
89104 On ch=1 n=31 v=83
89127 On ch=1 n=31 v=83
89151 On ch=1 n=31 v=83
89175 On ch=1 n=31 v=83
89198 On ch=1 n=30 v=83
89198 On ch=1 n=31 v=83
89278 Off ch=1 n=32 v=64
89280 On ch=1 n=26 v=100
89280 On ch=1 n=28 v=100
89282 On ch=1 n=32 v=83
89388 Off ch=1 n=25 v=64
89400 Off ch=1 n=26 v=64
89411 Off ch=1 n=28 v=64
89460 Off ch=1 n=31 v=64
89480 Off ch=1 n=31 v=64
89493 Off ch=1 n=31 v=64
89512 Off ch=1 n=31 v=64
89520 On ch=1 n=28 v=100
89524 Off ch=1 n=31 v=64
89547 Off ch=1 n=31 v=64
89571 Off ch=1 n=31 v=64
89595 Off ch=1 n=31 v=64
89618 Off ch=1 n=30 v=64
89618 Off ch=1 n=31 v=64
89651 Off ch=1 n=28 v=64
89758 Off ch=1 n=32 v=64
89760 On ch=1 n=26 v=100
89760 On ch=1 n=28 v=100
89762 On ch=1 n=32 v=83
89771 On ch=1 n=31 v=83
89794 On ch=1 n=31 v=83
89805 On ch=1 n=31 v=83
89818 On ch=1 n=31 v=83
89837 On ch=1 n=31 v=83
89853 On ch=1 n=31 v=83
89864 On ch=1 n=31 v=83
89870 On ch=1 n=31 v=83
89880 Off ch=1 n=26 v=64
89891 Off ch=1 n=28 v=64
89892 On ch=1 n=30 v=83
89892 On ch=1 n=31 v=83
90000 On ch=1 n=26 v=100
90120 On ch=1 n=28 v=91
90120 Off ch=1 n=26 v=64
90191 Off ch=1 n=31 v=64
90214 Off ch=1 n=31 v=64
90225 Off ch=1 n=31 v=64
90238 Off ch=1 n=31 v=64
90238 Off ch=1 n=32 v=64
90240 On ch=1 n=25 v=100
90240 On ch=1 n=26 v=100
90242 On ch=1 n=32 v=83
90251 Off ch=1 n=28 v=64
90257 Off ch=1 n=31 v=64
90273 Off ch=1 n=31 v=64
90284 Off ch=1 n=31 v=64
90290 Off ch=1 n=31 v=64
90312 Off ch=1 n=30 v=64
90312 Off ch=1 n=31 v=64
90360 On ch=1 n=26 v=100
90360 Off ch=1 n=26 v=64
90480 On ch=1 n=26 v=100
90480 On ch=1 n=26 v=100
90480 Off ch=1 n=26 v=64
90600 On ch=1 n=26 v=100
90600 Off ch=1 n=26 v=64
90600 Off ch=1 n=26 v=64
90718 Off ch=1 n=32 v=64
90720 On ch=1 n=25 v=100
90720 On ch=1 n=26 v=100
90720 Off ch=1 n=25 v=64
90720 Off ch=1 n=26 v=64
90722 On ch=1 n=32 v=83
90840 On ch=1 n=26 v=100
90840 Off ch=1 n=26 v=64
90960 On ch=1 n=26 v=100
90960 Off ch=1 n=26 v=64
91080 On ch=1 n=26 v=100
91080 Off ch=1 n=26 v=64
91200 On ch=1 n=25 v=100
91200 On ch=1 n=26 v=100
91200 Off ch=1 n=25 v=64
91200 Off ch=1 n=26 v=64
91320 On ch=1 n=26 v=100
91320 Off ch=1 n=26 v=64
91440 On ch=1 n=26 v=100
91440 On ch=1 n=26 v=100
91440 Off ch=1 n=26 v=64
91495 On ch=1 n=26 v=100
91500 On ch=1 n=28 v=100
91534 Off ch=1 n=28 v=64
91560 On ch=1 n=28 v=100
91560 Off ch=1 n=26 v=64
91560 Off ch=1 n=26 v=64
91594 Off ch=1 n=28 v=64
91615 Off ch=1 n=26 v=64
91620 On ch=1 n=26 v=100
91620 On ch=1 n=28 v=100
91654 Off ch=1 n=28 v=64
91680 On ch=1 n=25 v=100
91680 On ch=1 n=26 v=100
91680 On ch=1 n=26 v=100
91680 On ch=1 n=28 v=100
91680 On ch=1 n=28 v=100
91680 Off ch=1 n=25 v=64
91714 Off ch=1 n=28 v=64
91740 Off ch=1 n=26 v=64
91800 On ch=1 n=26 v=100
91800 On ch=1 n=28 v=100
91800 Off ch=1 n=26 v=64
91800 Off ch=1 n=26 v=64
91834 Off ch=1 n=28 v=64
91920 On ch=1 n=26 v=100
91920 On ch=1 n=26 v=100
91920 On ch=1 n=28 v=100
91920 Off ch=1 n=26 v=64
91980 Off ch=1 n=28 v=64
92040 On ch=1 n=26 v=100
92040 On ch=1 n=28 v=100
92040 Off ch=1 n=26 v=64
92040 Off ch=1 n=26 v=64
92100 Off ch=1 n=28 v=64
92160 On ch=1 n=25 v=100
92160 On ch=1 n=30 v=99
92160 Off ch=1 n=25 v=64
92160 Off ch=1 n=26 v=64
92160 Off ch=1 n=28 v=64
92160 Off ch=1 n=32 v=64
92625 On ch=1 n=25 v=0
92640 On ch=1 n=28 v=100
92771 Off ch=1 n=28 v=0
92880 On ch=1 n=25 v=100
92880 On ch=1 n=30 v=0
92880 On ch=1 n=30 v=99
93118 On ch=1 n=29 v=120
93228 On ch=1 n=25 v=0
93360 On ch=1 n=28 v=100
93491 Off ch=1 n=28 v=64
93600 On ch=1 n=25 v=100
93600 On ch=1 n=30 v=90
93600 Off ch=1 n=30 v=64
93726 On ch=1 n=29 v=0
94740 On ch=1 n=25 v=0
95040 On ch=1 n=30 v=0
95999 On ch=1 n=29 v=99
96000 On ch=1 n=25 v=100
96000 On ch=1 n=25 v=100
96000 On ch=1 n=30 v=107
96012 On ch=1 n=25 v=0
96292 On ch=1 n=25 v=0
96444 Off ch=1 n=29 v=64
96480 On ch=1 n=28 v=100
96611 Off ch=1 n=28 v=64
96720 On ch=1 n=25 v=100
96720 On ch=1 n=30 v=0
96720 On ch=1 n=30 v=123
96855 On ch=1 n=25 v=0
96959 On ch=1 n=29 v=99
96960 On ch=1 n=26 v=100
96960 On ch=1 n=28 v=100
97080 Off ch=1 n=26 v=64
97091 Off ch=1 n=28 v=64
97200 On ch=1 n=28 v=100
97331 Off ch=1 n=28 v=64
97404 On ch=1 n=29 v=0
97410 On ch=1 n=30 v=0
97439 On ch=1 n=29 v=113
97439 On ch=1 n=26 v=100
97439 On ch=1 n=28 v=100
97439 On ch=1 n=30 v=110
97560 Off ch=1 n=26 v=64
97571 Off ch=1 n=28 v=64
97680 On ch=1 n=26 v=100
97800 On ch=1 n=28 v=91
97800 Off ch=1 n=26 v=64
97920 On ch=1 n=26 v=100
97931 Off ch=1 n=28 v=64
97933 On ch=1 n=29 v=0
98040 On ch=1 n=26 v=100
98040 Off ch=1 n=26 v=64
98160 On ch=1 n=26 v=100
98160 Off ch=1 n=26 v=64
98280 On ch=1 n=26 v=100
98280 Off ch=1 n=26 v=64
98400 Off ch=1 n=26 v=64
98880 On ch=1 n=26 v=100
98935 On ch=1 n=30 v=0
99000 On ch=1 n=26 v=0
99120 On ch=1 n=26 v=100
99240 Off ch=1 n=26 v=64
99360 On ch=1 n=26 v=100
99480 Off ch=1 n=26 v=64
99600 On ch=1 n=26 v=100
99720 Off ch=1 n=26 v=64
99840 On ch=1 n=25 v=100
99840 On ch=1 n=30 v=110
100251 On ch=1 n=25 v=0
100320 On ch=1 n=28 v=100
100451 Off ch=1 n=28 v=0
100560 On ch=1 n=25 v=100
100560 On ch=1 n=30 v=0
100560 On ch=1 n=30 v=127
100686 On ch=1 n=25 v=0
101040 On ch=1 n=25 v=100
101040 On ch=1 n=28 v=100
101053 On ch=1 n=25 v=0
101171 Off ch=1 n=28 v=64
101198 On ch=1 n=30 v=0
101280 On ch=1 n=25 v=100
101280 On ch=1 n=30 v=96
102680 On ch=1 n=25 v=0
102720 On ch=1 n=25 v=100
102720 On ch=1 n=30 v=0
102940 On ch=1 n=25 v=0
102960 On ch=1 n=25 v=100
103180 Off ch=1 n=25 v=64
103200 On ch=1 n=25 v=100
103420 Off ch=1 n=25 v=64
103440 On ch=1 n=25 v=100
103660 Off ch=1 n=25 v=64
103674 On ch=1 n=29 v=126
103680 On ch=1 n=25 v=100
103680 On ch=1 n=26 v=100
103680 On ch=1 n=30 v=101
103762 On ch=1 n=25 v=0
103800 On ch=1 n=26 v=0
104103 On ch=1 n=29 v=0
104156 On ch=1 n=29 v=95
104160 On ch=1 n=28 v=100
104291 Off ch=1 n=28 v=64
104400 On ch=1 n=25 v=100
104400 On ch=1 n=30 v=0
104400 On ch=1 n=30 v=124
104574 On ch=1 n=29 v=0
104640 On ch=1 n=26 v=100
104640 On ch=1 n=28 v=100
104748 Off ch=1 n=25 v=64
104760 Off ch=1 n=26 v=64
104771 Off ch=1 n=28 v=64
104880 On ch=1 n=28 v=100
105011 Off ch=1 n=28 v=64
105102 On ch=1 n=30 v=0
105120 On ch=1 n=25 v=100
105120 On ch=1 n=26 v=100
105120 On ch=1 n=28 v=100
105120 On ch=1 n=30 v=78
105240 Off ch=1 n=26 v=64
105251 Off ch=1 n=28 v=64
105360 On ch=1 n=26 v=100
105480 On ch=1 n=28 v=91
105480 Off ch=1 n=26 v=64
105600 On ch=1 n=25 v=100
105600 On ch=1 n=26 v=100
105600 Off ch=1 n=25 v=64
105611 Off ch=1 n=28 v=64
105720 On ch=1 n=26 v=100
105720 Off ch=1 n=26 v=64
105840 On ch=1 n=26 v=100
105840 On ch=1 n=26 v=100
105840 Off ch=1 n=26 v=64
105960 On ch=1 n=26 v=100
105960 Off ch=1 n=26 v=64
105960 Off ch=1 n=26 v=64
106080 On ch=1 n=25 v=100
106080 On ch=1 n=26 v=100
106080 Off ch=1 n=25 v=64
106080 Off ch=1 n=26 v=64
106200 On ch=1 n=26 v=100
106200 Off ch=1 n=26 v=64
106320 On ch=1 n=26 v=100
106320 Off ch=1 n=26 v=64
106440 On ch=1 n=26 v=100
106440 Off ch=1 n=26 v=64
106560 On ch=1 n=25 v=100
106560 On ch=1 n=26 v=100
106560 On ch=1 n=30 v=0
106560 Off ch=1 n=25 v=64
106560 Off ch=1 n=26 v=64
106680 On ch=1 n=26 v=100
106680 Off ch=1 n=26 v=64
106800 On ch=1 n=26 v=100
106800 On ch=1 n=26 v=100
106800 Off ch=1 n=26 v=64
106855 On ch=1 n=26 v=100
106920 Off ch=1 n=26 v=64
106920 Off ch=1 n=26 v=64
106975 Off ch=1 n=26 v=64
106980 On ch=1 n=26 v=100
107040 On ch=1 n=26 v=100
107040 On ch=1 n=26 v=100
107040 On ch=1 n=32 v=86
107100 Off ch=1 n=26 v=64
107160 On ch=1 n=26 v=100
107160 Off ch=1 n=26 v=64
107160 Off ch=1 n=26 v=64
107280 On ch=1 n=26 v=100
107280 On ch=1 n=26 v=100
107280 Off ch=1 n=26 v=64
107400 On ch=1 n=26 v=100
107400 Off ch=1 n=26 v=64
107400 Off ch=1 n=26 v=64
107516 Off ch=1 n=32 v=0
107520 On ch=1 n=30 v=99
107520 On ch=1 n=32 v=86
107520 Off ch=1 n=26 v=64
108240 On ch=1 n=30 v=0
108240 On ch=1 n=30 v=99
108960 On ch=1 n=30 v=90
108960 Off ch=1 n=30 v=64
110400 On ch=1 n=30 v=0
110876 Off ch=1 n=32 v=64
110880 On ch=1 n=32 v=86
111356 Off ch=1 n=32 v=0
111360 On ch=1 n=30 v=107
111360 On ch=1 n=32 v=86
112080 On ch=1 n=30 v=0
112080 On ch=1 n=30 v=123
112080 Off ch=1 n=25 v=64
112770 On ch=1 n=30 v=0
112796 Off ch=1 n=32 v=64
112800 On ch=1 n=30 v=110
112800 On ch=1 n=32 v=86
114295 On ch=1 n=30 v=0
114716 Off ch=1 n=32 v=64
114720 On ch=1 n=32 v=86
115196 Off ch=1 n=32 v=64
115200 On ch=1 n=30 v=110
115200 On ch=1 n=32 v=86
115920 On ch=1 n=30 v=0
115920 On ch=1 n=30 v=127
116558 On ch=1 n=30 v=0
116640 On ch=1 n=30 v=96
118080 On ch=1 n=30 v=0
118556 Off ch=1 n=32 v=64
118560 On ch=1 n=32 v=86
119036 Off ch=1 n=32 v=64
119040 On ch=1 n=30 v=101
119040 On ch=1 n=32 v=86
119760 On ch=1 n=30 v=0
119760 On ch=1 n=30 v=124
120462 On ch=1 n=30 v=0
120476 Off ch=1 n=32 v=64
120480 On ch=1 n=30 v=78
120480 On ch=1 n=32 v=86
121920 On ch=1 n=30 v=0
122396 Off ch=1 n=32 v=64
122400 On ch=1 n=32 v=86
122876 Off ch=1 n=32 v=0
122880 On ch=1 n=32 v=86
122880 On ch=1 n=36 v=60
123595 On ch=1 n=36 v=0
123599 On ch=1 n=36 v=98
124075 On ch=1 n=36 v=0
124079 On ch=1 n=36 v=99
124320 On ch=1 n=36 v=0
124324 On ch=1 n=36 v=94
125041 On ch=1 n=36 v=0
125045 On ch=1 n=36 v=90
125516 On ch=1 n=36 v=0
125520 On ch=1 n=36 v=95
126235 On ch=1 n=36 v=0
126239 On ch=1 n=36 v=92
126713 On ch=1 n=36 v=0
126717 On ch=1 n=36 v=99
126960 Off ch=1 n=32 v=64
127437 On ch=1 n=36 v=0
127441 On ch=1 n=36 v=90
127913 On ch=1 n=36 v=0
127917 On ch=1 n=36 v=83
128161 On ch=1 n=36 v=0
128165 On ch=1 n=36 v=82
128866 On ch=1 n=36 v=0
128870 On ch=1 n=36 v=91
129350 On ch=1 n=36 v=0
129354 On ch=1 n=36 v=90
129586 On ch=1 n=36 v=0
129590 On ch=1 n=36 v=87
130316 On ch=1 n=36 v=0
130320 On ch=1 n=36 v=91
130556 On ch=1 n=36 v=0
130560 On ch=1 n=36 v=71
131275 On ch=1 n=36 v=0
131279 On ch=1 n=36 v=81
131755 On ch=1 n=36 v=0
131759 On ch=1 n=36 v=93
132000 On ch=1 n=36 v=0
132004 On ch=1 n=36 v=81
132721 On ch=1 n=36 v=0
132725 On ch=1 n=36 v=92
133196 On ch=1 n=36 v=0
133200 On ch=1 n=36 v=88
133915 On ch=1 n=36 v=0
133919 On ch=1 n=36 v=93
134393 On ch=1 n=36 v=0
134397 On ch=1 n=36 v=98
135117 On ch=1 n=36 v=0
135121 On ch=1 n=36 v=95
135593 On ch=1 n=36 v=0
135597 On ch=1 n=36 v=90
135841 On ch=1 n=36 v=0
135845 On ch=1 n=36 v=92
137266 On ch=1 n=36 v=0
137270 On ch=1 n=36 v=83
138238 On ch=1 n=36 v=0
138242 On ch=1 n=36 v=96
138955 On ch=1 n=36 v=0
138959 On ch=1 n=36 v=98
139435 On ch=1 n=36 v=0
139439 On ch=1 n=36 v=99
139680 On ch=1 n=36 v=0
139684 On ch=1 n=36 v=94
139918 On ch=1 n=29 v=120
140160 On ch=1 n=29 v=0
140401 On ch=1 n=36 v=0
140405 On ch=1 n=36 v=90
140876 On ch=1 n=36 v=0
140880 On ch=1 n=36 v=95
141595 On ch=1 n=36 v=0
141599 On ch=1 n=36 v=92
142073 On ch=1 n=36 v=0
142077 On ch=1 n=36 v=99
142797 On ch=1 n=36 v=0
142801 On ch=1 n=36 v=90
143039 On ch=1 n=29 v=99
143273 On ch=1 n=36 v=0
143277 On ch=1 n=36 v=83
143484 On ch=1 n=29 v=0
143520 On ch=1 n=36 v=0
143524 On ch=1 n=36 v=82
144226 On ch=1 n=36 v=0
144230 On ch=1 n=36 v=91
144710 On ch=1 n=36 v=0
144714 On ch=1 n=36 v=90
144946 On ch=1 n=36 v=0
144950 On ch=1 n=36 v=87
145676 On ch=1 n=36 v=0
145680 On ch=1 n=36 v=91
145916 On ch=1 n=36 v=0
145920 On ch=1 n=36 v=71
146635 On ch=1 n=36 v=0
146639 On ch=1 n=36 v=81
147115 On ch=1 n=36 v=0
147119 On ch=1 n=36 v=93
147360 On ch=1 n=36 v=0
147364 On ch=1 n=36 v=81
148081 On ch=1 n=36 v=0
148085 On ch=1 n=36 v=92
148556 On ch=1 n=36 v=0
148560 On ch=1 n=36 v=88
149275 On ch=1 n=36 v=0
149279 On ch=1 n=36 v=93
149753 On ch=1 n=36 v=0
149757 On ch=1 n=36 v=98
150236 On ch=1 n=29 v=95
150477 On ch=1 n=36 v=0
150481 On ch=1 n=36 v=95
150654 On ch=1 n=29 v=0
150953 On ch=1 n=36 v=0
150957 On ch=1 n=36 v=90
151201 On ch=1 n=36 v=0
151205 On ch=1 n=36 v=92
152626 On ch=1 n=36 v=0
152630 On ch=1 n=36 v=83
152640 On ch=1 n=24 v=99
152975 Off ch=1 n=24 v=0
152979 On ch=1 n=24 v=100
153586 On ch=1 n=36 v=0
153590 On ch=1 n=36 v=83
153596 Off ch=1 n=24 v=64
153600 On ch=1 n=24 v=100
156296 Off ch=1 n=24 v=0
156300 On ch=1 n=24 v=100
156815 Off ch=1 n=24 v=0
156819 On ch=1 n=24 v=100
157322 Off ch=1 n=36 v=64
157436 Off ch=1 n=24 v=64
157440 On ch=1 n=24 v=100
160136 Off ch=1 n=24 v=0
160140 On ch=1 n=24 v=100
160655 Off ch=1 n=24 v=0
160659 On ch=1 n=24 v=100
161276 Off ch=1 n=24 v=64
161280 On ch=1 n=24 v=100
161280 On ch=1 n=25 v=100
161760 Off ch=1 n=25 v=64
162240 On ch=1 n=25 v=100
162720 Off ch=1 n=25 v=64
163200 On ch=1 n=25 v=100
163680 On ch=1 n=25 v=100
163680 Off ch=1 n=25 v=64
163976 Off ch=1 n=24 v=0
163980 On ch=1 n=24 v=100
164160 On ch=1 n=25 v=100
164160 Off ch=1 n=25 v=64
164495 Off ch=1 n=24 v=0
164499 On ch=1 n=24 v=100
164640 On ch=1 n=25 v=100
164640 Off ch=1 n=25 v=64
165116 Off ch=1 n=24 v=64
165120 On ch=1 n=24 v=100
165120 On ch=1 n=25 v=100
165120 Off ch=1 n=25 v=64
165360 On ch=1 n=25 v=100
165360 Off ch=1 n=25 v=64
165600 On ch=1 n=25 v=100
165600 Off ch=1 n=25 v=64
165840 On ch=1 n=25 v=100
165840 Off ch=1 n=25 v=64
166080 On ch=1 n=25 v=100
166080 Off ch=1 n=25 v=64
166320 On ch=1 n=25 v=100
166320 Off ch=1 n=25 v=64
166560 On ch=1 n=25 v=100
166560 Off ch=1 n=25 v=64
166800 On ch=1 n=25 v=100
166800 Off ch=1 n=25 v=64
166916 Off ch=1 n=24 v=0
166920 On ch=1 n=24 v=100
167040 On ch=1 n=25 v=100
167040 On ch=1 n=25 v=100
167040 Off ch=1 n=25 v=64
167280 Off ch=1 n=25 v=64
167400 Off ch=1 n=24 v=64
168960 On ch=1 n=24 v=100
168960 On ch=1 n=25 v=100
169202 Off ch=1 n=25 v=0
169440 Off ch=1 n=24 v=0
169440 On ch=1 n=25 v=100
169440 On ch=1 n=28 v=100
169440 On ch=1 n=57 v=83
169682 Off ch=1 n=25 v=64
169920 On ch=1 n=24 v=100
169920 On ch=1 n=25 v=100
169920 Off ch=1 n=28 v=0
169920 Off ch=1 n=57 v=64
170162 Off ch=1 n=25 v=64
170400 Off ch=1 n=24 v=64
170400 On ch=1 n=25 v=100
170400 On ch=1 n=28 v=100
170400 On ch=1 n=57 v=83
170642 Off ch=1 n=25 v=64
170880 On ch=1 n=24 v=100
170880 On ch=1 n=25 v=100
170880 Off ch=1 n=28 v=64
170880 Off ch=1 n=57 v=64
171122 Off ch=1 n=25 v=0
171360 Off ch=1 n=24 v=64
171360 On ch=1 n=25 v=100
171360 On ch=1 n=28 v=100
171360 On ch=1 n=57 v=83
171602 Off ch=1 n=25 v=64
171840 On ch=1 n=24 v=100
171840 On ch=1 n=25 v=100
171840 Off ch=1 n=28 v=64
171840 Off ch=1 n=57 v=64
172082 Off ch=1 n=25 v=64
172320 Off ch=1 n=24 v=64
172320 On ch=1 n=25 v=100
172320 On ch=1 n=28 v=100
172320 On ch=1 n=57 v=83
172320 Off ch=1 n=25 v=64
172562 Off ch=1 n=25 v=64
172800 On ch=1 n=25 v=100
172800 On ch=1 n=34 v=100
172800 Off ch=1 n=28 v=64
172800 Off ch=1 n=57 v=64
173042 Off ch=1 n=25 v=0
173160 On ch=1 n=34 v=100
173160 Off ch=1 n=34 v=0
173280 On ch=1 n=25 v=100
173280 On ch=1 n=28 v=100
173520 On ch=1 n=34 v=100
173520 Off ch=1 n=34 v=64
173522 Off ch=1 n=25 v=64
173760 On ch=1 n=25 v=100
173760 Off ch=1 n=28 v=0
173880 On ch=1 n=34 v=100
173880 Off ch=1 n=34 v=64
174002 Off ch=1 n=25 v=64
174240 On ch=1 n=25 v=100
174240 On ch=1 n=28 v=100
174240 On ch=1 n=34 v=100
174240 Off ch=1 n=34 v=64
174482 Off ch=1 n=25 v=64
174600 On ch=1 n=34 v=100
174600 Off ch=1 n=34 v=64
174720 On ch=1 n=25 v=100
174720 Off ch=1 n=28 v=64
174960 On ch=1 n=25 v=100
174960 On ch=1 n=34 v=100
174960 Off ch=1 n=34 v=64
174962 Off ch=1 n=25 v=0
175200 On ch=1 n=25 v=100
175200 On ch=1 n=28 v=100
175202 Off ch=1 n=25 v=64
175320 On ch=1 n=34 v=100
175320 Off ch=1 n=34 v=64
175440 On ch=1 n=25 v=100
175442 Off ch=1 n=25 v=64
175680 On ch=1 n=25 v=100
175680 On ch=1 n=34 v=100
175680 Off ch=1 n=28 v=64
175680 Off ch=1 n=34 v=64
175682 Off ch=1 n=25 v=64
175922 Off ch=1 n=25 v=64
176040 On ch=1 n=34 v=100
176040 Off ch=1 n=34 v=64
176160 On ch=1 n=25 v=100
176160 On ch=1 n=28 v=100
176400 On ch=1 n=34 v=100
176400 Off ch=1 n=34 v=64
176402 Off ch=1 n=25 v=64
176640 On ch=1 n=24 v=100
176640 On ch=1 n=25 v=100
176640 Off ch=1 n=28 v=64
176640 Off ch=1 n=34 v=64
176882 Off ch=1 n=25 v=0
177120 Off ch=1 n=24 v=0
177120 On ch=1 n=25 v=100
177120 On ch=1 n=28 v=100
177120 On ch=1 n=57 v=83
177362 Off ch=1 n=25 v=64
177600 On ch=1 n=24 v=100
177600 On ch=1 n=25 v=100
177600 Off ch=1 n=28 v=0
177600 Off ch=1 n=57 v=64
177842 Off ch=1 n=25 v=64
178080 Off ch=1 n=24 v=64
178080 On ch=1 n=25 v=100
178080 On ch=1 n=28 v=100
178080 On ch=1 n=57 v=83
178322 Off ch=1 n=25 v=64
178560 On ch=1 n=24 v=100
178560 On ch=1 n=25 v=100
178560 Off ch=1 n=28 v=64
178560 Off ch=1 n=57 v=64
178802 Off ch=1 n=25 v=0
179040 Off ch=1 n=24 v=64
179040 On ch=1 n=25 v=100
179040 On ch=1 n=28 v=100
179040 On ch=1 n=57 v=83
179282 Off ch=1 n=25 v=64
179520 On ch=1 n=24 v=100
179520 On ch=1 n=25 v=100
179520 Off ch=1 n=28 v=64
179520 Off ch=1 n=57 v=64
179762 Off ch=1 n=25 v=64
180000 Off ch=1 n=24 v=64
180000 On ch=1 n=25 v=100
180000 On ch=1 n=28 v=100
180000 On ch=1 n=57 v=83
180242 Off ch=1 n=25 v=64
180480 On ch=1 n=25 v=100
180480 Off ch=1 n=28 v=64
180480 Off ch=1 n=57 v=64
180722 Off ch=1 n=25 v=0
180960 On ch=1 n=25 v=100
180960 On ch=1 n=28 v=100
181202 Off ch=1 n=25 v=64
181440 On ch=1 n=25 v=100
181440 Off ch=1 n=28 v=0
181682 Off ch=1 n=25 v=64
181920 On ch=1 n=25 v=100
181920 On ch=1 n=28 v=100
182162 Off ch=1 n=25 v=64
182400 On ch=1 n=25 v=100
182400 On ch=1 n=35 v=100
182400 Off ch=1 n=28 v=64
182640 On ch=1 n=25 v=100
182642 Off ch=1 n=25 v=0
182880 On ch=1 n=25 v=100
182880 On ch=1 n=28 v=100
182882 Off ch=1 n=25 v=64
183120 On ch=1 n=25 v=100
183122 Off ch=1 n=25 v=64
183360 On ch=1 n=25 v=100
183360 Off ch=1 n=28 v=0
183362 Off ch=1 n=25 v=64
183602 Off ch=1 n=25 v=64
183840 On ch=1 n=25 v=100
183840 On ch=1 n=28 v=100
184082 Off ch=1 n=25 v=64
184320 On ch=1 n=24 v=100
184320 On ch=1 n=25 v=100
184320 Off ch=1 n=28 v=64
184320 Off ch=1 n=35 v=0
184562 Off ch=1 n=25 v=0
184800 Off ch=1 n=24 v=0
184800 On ch=1 n=25 v=100
184800 On ch=1 n=28 v=100
184800 On ch=1 n=57 v=83
184800 On ch=1 n=57 v=83
185042 Off ch=1 n=25 v=64
185280 On ch=1 n=24 v=100
185280 On ch=1 n=25 v=100
185280 Off ch=1 n=28 v=0
185280 Off ch=1 n=57 v=64
185280 Off ch=1 n=57 v=64
185522 Off ch=1 n=25 v=64
185760 Off ch=1 n=24 v=64
185760 On ch=1 n=25 v=100
185760 On ch=1 n=28 v=100
185760 On ch=1 n=57 v=83
185760 On ch=1 n=57 v=83
186002 Off ch=1 n=25 v=64
186240 On ch=1 n=24 v=100
186240 On ch=1 n=25 v=100
186240 Off ch=1 n=28 v=64
186240 Off ch=1 n=57 v=64
186240 Off ch=1 n=57 v=64
186482 Off ch=1 n=25 v=0
186720 Off ch=1 n=24 v=64
186720 On ch=1 n=25 v=100
186720 On ch=1 n=28 v=100
186720 On ch=1 n=57 v=83
186962 Off ch=1 n=25 v=64
187200 On ch=1 n=24 v=100
187200 On ch=1 n=25 v=100
187200 Off ch=1 n=28 v=64
187200 Off ch=1 n=57 v=64
187442 Off ch=1 n=25 v=64
187680 Off ch=1 n=24 v=64
187680 On ch=1 n=25 v=100
187680 On ch=1 n=28 v=100
187680 On ch=1 n=57 v=83
187922 Off ch=1 n=25 v=64
188160 On ch=1 n=25 v=100
188160 On ch=1 n=34 v=100
188160 Off ch=1 n=28 v=64
188160 Off ch=1 n=57 v=64
188402 Off ch=1 n=25 v=0
188520 On ch=1 n=34 v=100
188520 Off ch=1 n=34 v=64
188640 On ch=1 n=25 v=100
188640 On ch=1 n=28 v=100
188880 On ch=1 n=34 v=100
188880 Off ch=1 n=34 v=64
188882 Off ch=1 n=25 v=64
189120 On ch=1 n=25 v=100
189120 Off ch=1 n=28 v=0
189240 On ch=1 n=34 v=100
189240 Off ch=1 n=34 v=64
189362 Off ch=1 n=25 v=64
189600 On ch=1 n=25 v=100
189600 On ch=1 n=28 v=100
189600 On ch=1 n=34 v=100
189600 Off ch=1 n=34 v=64
189842 Off ch=1 n=25 v=64
189960 On ch=1 n=34 v=100
189960 Off ch=1 n=34 v=64
190080 On ch=1 n=25 v=100
190080 Off ch=1 n=28 v=64
190320 On ch=1 n=25 v=100
190320 On ch=1 n=34 v=100
190320 Off ch=1 n=34 v=64
190322 Off ch=1 n=25 v=0
190560 On ch=1 n=25 v=100
190560 On ch=1 n=28 v=100
190562 Off ch=1 n=25 v=64
190680 On ch=1 n=34 v=100
190680 Off ch=1 n=34 v=64
190800 On ch=1 n=25 v=100
190802 Off ch=1 n=25 v=64
191040 On ch=1 n=25 v=100
191040 On ch=1 n=34 v=100
191040 Off ch=1 n=28 v=64
191040 Off ch=1 n=34 v=64
191042 Off ch=1 n=25 v=64
191282 Off ch=1 n=25 v=64
191400 On ch=1 n=34 v=100
191400 Off ch=1 n=34 v=64
191520 On ch=1 n=25 v=100
191520 On ch=1 n=28 v=100
191760 On ch=1 n=34 v=100
191760 Off ch=1 n=34 v=64
191762 Off ch=1 n=25 v=64
192000 On ch=1 n=24 v=100
192000 On ch=1 n=25 v=100
192000 Off ch=1 n=28 v=64
192000 Off ch=1 n=34 v=64
192242 Off ch=1 n=25 v=0
192480 Off ch=1 n=24 v=0
192480 On ch=1 n=25 v=100
192480 On ch=1 n=28 v=100
192480 On ch=1 n=57 v=83
192722 Off ch=1 n=25 v=64
192960 On ch=1 n=24 v=100
192960 On ch=1 n=25 v=100
192960 Off ch=1 n=28 v=0
192960 Off ch=1 n=57 v=64
193202 Off ch=1 n=25 v=64
193440 Off ch=1 n=24 v=64
193440 On ch=1 n=25 v=100
193440 On ch=1 n=28 v=100
193440 On ch=1 n=57 v=83
193682 Off ch=1 n=25 v=64
193920 On ch=1 n=24 v=100
193920 On ch=1 n=25 v=100
193920 Off ch=1 n=28 v=64
193920 Off ch=1 n=57 v=64
194162 Off ch=1 n=25 v=0
194400 Off ch=1 n=24 v=64
194400 On ch=1 n=25 v=100
194400 On ch=1 n=28 v=100
194400 On ch=1 n=57 v=83
194642 Off ch=1 n=25 v=64
194880 On ch=1 n=24 v=100
194880 On ch=1 n=25 v=100
194880 Off ch=1 n=28 v=64
194880 Off ch=1 n=57 v=64
195122 Off ch=1 n=25 v=64
195360 Off ch=1 n=24 v=64
195360 On ch=1 n=25 v=100
195360 On ch=1 n=28 v=100
195360 On ch=1 n=57 v=83
195602 Off ch=1 n=25 v=64
195840 On ch=1 n=25 v=100
195840 Off ch=1 n=28 v=64
195840 Off ch=1 n=57 v=64
196320 On ch=1 n=25 v=100
196320 Off ch=1 n=25 v=64
196800 On ch=1 n=25 v=100
196800 Off ch=1 n=25 v=64
197280 On ch=1 n=25 v=100
197280 Off ch=1 n=25 v=64
197760 On ch=1 n=25 v=100
197760 Off ch=1 n=25 v=64
198000 On ch=1 n=25 v=100
198000 Off ch=1 n=25 v=64
198240 On ch=1 n=25 v=100
198240 Off ch=1 n=25 v=64
198300 On ch=1 n=29 v=100
198480 On ch=1 n=25 v=100
198480 Off ch=1 n=25 v=64
198720 On ch=1 n=25 v=100
198720 Off ch=1 n=25 v=64
198960 On ch=1 n=25 v=100
198960 Off ch=1 n=25 v=64
199200 On ch=1 n=25 v=100
199200 Off ch=1 n=25 v=64
199440 On ch=1 n=25 v=100
199440 Off ch=1 n=25 v=64
199680 On ch=1 n=25 v=100
199680 Off ch=1 n=25 v=64
199680 Off ch=1 n=29 v=0
202680 Off ch=1 n=25 v=64
202680 Meta TrkEnd
TrkEnd